<?xml version="1.0" standalone="no"?>
<!DOCTYPE svg PUBLIC "-//W3C//DTD SVG 20010904//EN"
 "http://www.w3.org/TR/2001/REC-SVG-20010904/DTD/svg10.dtd">
<svg version="1.0" xmlns="http://www.w3.org/2000/svg"
 width="250.000000pt" height="250.000000pt" viewBox="0 0 250.000000 250.000000"
 preserveAspectRatio="xMidYMid meet">
<metadata>
Created by potrace 1.11, written by Peter Selinger 2001-2013
</metadata>
<g transform="translate(0.000000,250.000000) scale(0.100000,-0.100000)"
fill="#000000" stroke="none">
<path d="M1053 2458 c-74 -77 -141 -144 -164 -164 -39 -34 -144 -151 -144
-160 0 -5 -9 -27 -19 -48 -15 -32 -18 -55 -14 -121 6 -86 17 -112 87 -199 l31
-38 -24 -19 c-29 -23 -59 -24 -80 -4 -8 8 -19 15 -25 15 -6 0 -11 4 -11 9 0 5
-21 19 -47 32 -69 33 -201 32 -264 -2 -24 -13 -51 -32 -60 -41 -9 -10 -22 -18
-28 -18 -7 0 -9 -4 -6 -10 3 -5 2 -10 -3 -10 -5 0 -21 -13 -36 -29 -51 -54
-133 -136 -157 -158 -73 -66 -83 -82 -85 -139 -1 -29 3 -54 7 -54 5 0 89 81
188 180 98 99 184 180 190 180 6 0 11 4 11 9 0 16 58 33 111 33 66 -1 104 -16
151 -60 l37 -35 -27 -24 c-34 -29 -37 -29 -69 1 -15 14 -30 23 -34 20 -4 -2
-10 0 -14 6 -9 15 -72 12 -104 -5 -16 -8 -44 -32 -62 -55 -18 -22 -42 -43 -52
-46 -10 -3 -16 -8 -14 -11 3 -2 -46 -55 -107 -116 -62 -62 -115 -120 -119
-129 -4 -12 41 -63 170 -192 97 -96 187 -179 202 -184 42 -15 93 -4 133 28 20
17 40 30 44 30 10 0 44 -42 44 -55 0 -17 -39 -50 -88 -75 -55 -27 -141 -26
-191 4 -19 11 -111 97 -205 190 -94 94 -178 176 -186 183 -14 11 -16 5 -15
-43 l0 -55 175 -172 c149 -147 183 -175 227 -190 107 -38 237 -11 308 62 17
17 35 31 42 31 12 0 63 -46 63 -56 0 -11 -22 -45 -45 -70 -41 -44 -57 -85 -61
-159 -8 -132 6 -155 197 -350 166 -168 167 -169 213 -171 25 -1 49 2 51 7 3 4
-68 82 -158 172 -205 204 -222 228 -222 317 1 70 20 114 72 166 l25 25 24 -23
c30 -29 30 -38 -1 -74 -14 -16 -28 -44 -31 -62 -14 -74 -4 -90 183 -276 97
-97 184 -176 192 -176 18 0 82 65 73 74 -3 3 0 6 6 6 20 0 265 254 283 294 20
45 13 79 -26 136 -29 42 -25 67 13 77 21 5 31 0 58 -33 61 -72 66 -183 12
-254 -22 -28 -143 -152 -245 -251 -84 -83 -114 -117 -105 -122 4 -2 26 -5 50
-6 42 -2 46 0 151 103 60 58 107 107 106 108 -2 2 11 14 29 27 44 34 98 106
118 159 18 47 19 176 2 203 -8 13 -10 17 -13 37 0 4 -19 28 -41 52 -22 25 -40
52 -40 61 0 8 14 25 30 38 l31 22 41 -35 c23 -20 46 -36 50 -36 5 0 6 -5 2
-12 -4 -6 -3 -8 3 -5 6 4 28 0 49 -9 53 -22 174 -15 234 13 30 15 100 78 208
186 l162 164 0 59 0 59 -187 -187 c-104 -102 -205 -196 -226 -207 -51 -28
-124 -28 -179 1 -89 47 -110 83 -63 114 24 16 26 15 60 -15 20 -17 45 -32 55
-32 11 -1 28 -2 38 -2 44 -3 89 32 256 198 l178 177 -178 179 c-189 189 -216
208 -286 195 -18 -3 -49 -19 -68 -36 l-34 -29 -28 26 -28 27 27 29 c65 68 173
88 253 47 21 -11 120 -101 220 -200 99 -99 183 -180 185 -180 3 0 5 26 5 58
l0 57 -164 161 c-193 190 -222 207 -341 207 -92 0 -144 -20 -210 -79 l-39 -36
-28 31 c-15 17 -28 35 -28 39 0 4 16 25 35 47 51 58 74 126 71 210 -3 108 -25
144 -210 332 l-161 163 -57 0 c-32 0 -58 -3 -58 -6 0 -3 78 -83 173 -177 95
-95 183 -185 194 -200 32 -41 48 -128 32 -175 -17 -53 -67 -122 -88 -122 -10
0 -27 10 -39 23 l-22 23 25 24 c32 30 50 88 41 135 -6 32 -37 68 -189 222
-115 117 -183 179 -185 169 -2 -9 -10 -13 -20 -9 -9 3 -14 3 -11 -1 8 -8 -280
-296 -295 -296 -5 0 -7 -3 -3 -6 3 -4 -3 -14 -14 -23 -30 -24 -37 -100 -14
-151 10 -21 24 -41 31 -44 8 -3 14 -11 14 -17 0 -14 -39 -49 -55 -49 -20 0
-55 45 -74 96 -20 52 -20 156 -1 162 5 2 10 10 10 19 0 8 86 100 190 204 105
104 190 191 190 194 0 3 -26 5 -58 5 -52 0 -61 -3 -89 -32z m241 -201 l20 -27
-32 -33 -32 -32 -25 30 c-30 37 -30 43 -3 72 27 29 45 26 72 -10z m-124 -131
c43 -52 52 -77 48 -146 -5 -79 -8 -90 -32 -112 -10 -10 -16 -18 -12 -18 4 0
-38 -45 -94 -100 -57 -55 -107 -100 -111 -100 -5 0 -9 -4 -9 -10 0 -12 -138
-150 -150 -150 -6 0 -10 -4 -10 -10 0 -15 -139 -149 -185 -178 -33 -21 -52
-25 -105 -25 -72 1 -100 12 -153 62 l-36 34 24 19 c30 23 48 23 70 -2 25 -28
83 -42 123 -31 18 5 32 7 32 5 0 -3 11 5 24 18 95 91 173 168 171 168 -1 0 18
20 43 45 24 25 48 45 53 45 4 0 11 9 14 20 3 11 10 20 14 20 12 0 199 189 193
195 -3 3 3 5 13 5 10 0 16 3 12 6 -3 3 2 15 12 25 27 29 26 103 -1 148 -12 20
-26 38 -30 39 -14 6 -9 25 13 49 24 25 32 22 69 -21z m243 16 l26 -27 -30 -33
c-37 -40 -50 -113 -26 -158 8 -16 136 -149 284 -296 282 -281 274 -274 353
-268 25 2 63 22 88 47 19 18 25 17 52 -12 22 -24 23 -26 6 -44 -64 -71 -161
-97 -244 -66 -39 15 -95 66 -315 284 -148 146 -279 284 -293 306 -47 81 -39
176 23 251 19 24 39 44 42 44 4 0 19 -12 34 -28z m-372 -125 c15 -20 15 -27 3
-55 -15 -37 -35 -41 -64 -12 -22 22 -19 54 7 80 21 20 32 17 54 -13z m484 13
c32 -35 16 -100 -25 -100 -41 0 -57 65 -25 100 10 11 21 20 25 20 4 0 15 -9
25 -20z m21 -519 l269 -270 -236 -235 c-130 -130 -241 -236 -247 -236 -7 0
-12 -6 -12 -14 0 -8 -3 -16 -7 -18 -5 -1 -20 -18 -35 -36 -16 -19 -28 -29 -28
-24 0 5 -119 129 -265 274 -200 200 -265 271 -265 289 0 25 120 159 142 159 6
0 9 3 5 6 -7 8 79 94 94 94 7 0 10 3 7 6 -8 7 40 54 54 54 6 0 9 3 5 6 -3 3
47 57 110 120 84 83 119 111 128 104 7 -6 133 -131 281 -279z m497 1 c22 -20
22 -27 -5 -52 -28 -25 -48 -25 -82 1 -34 26 -33 35 5 58 33 20 52 18 82 -7z
m-1507 10 c6 -4 14 -17 18 -29 5 -16 2 -25 -13 -32 -28 -16 -46 -14 -72 8 -21
16 -21 20 -8 34 13 12 30 20 59 26 3 0 10 -3 16 -7z m1746 -249 l28 -27 -27
-28 c-33 -35 -43 -35 -78 -2 l-27 25 28 30 c34 36 41 36 76 2z m-1996 9 c6 -4
16 -16 22 -28 9 -18 7 -25 -18 -49 l-29 -28 -25 29 c-31 36 -32 49 -4 68 25
18 37 19 54 8z m308 -86 c45 -19 44 -18 329 -303 138 -138 262 -269 275 -292
28 -47 33 -131 11 -183 -15 -36 -67 -98 -82 -98 -10 0 -47 39 -47 49 0 3 14
26 30 50 33 48 39 99 16 140 -7 13 -134 144 -282 292 -245 245 -272 269 -309
274 -48 8 -90 -7 -128 -43 l-28 -26 -24 26 c-30 33 -31 37 -2 64 63 60 166 82
241 50z m1509 -15 c13 -11 27 -21 33 -21 5 0 17 -12 27 -26 18 -24 18 -25 -5
-44 -29 -25 -41 -25 -63 0 -25 28 -80 43 -128 36 -36 -6 -58 -25 -195 -161
-85 -85 -158 -155 -163 -155 -5 0 -9 -4 -9 -10 0 -5 -49 -58 -109 -118 -112
-111 -126 -133 -122 -191 2 -36 26 -91 40 -91 18 0 20 -32 3 -55 -17 -25 -42
-33 -42 -15 0 6 -7 10 -15 10 -8 0 -15 7 -15 15 0 8 -8 22 -18 32 -11 10 -25
39 -32 66 -15 55 0 129 32 160 10 10 18 24 18 32 0 8 4 15 8 15 5 0 123 115
263 255 140 140 262 255 272 255 9 0 17 4 17 8 0 18 48 30 113 27 53 -2 73 -7
90 -24z m-1559 -157 c19 -7 21 -35 4 -52 -15 -15 -61 -15 -76 0 -37 37 15 74
72 52z m1487 -4 c23 -13 24 -26 5 -46 -26 -25 -96 -10 -96 21 0 29 54 44 91
25z m-980 -502 c11 -20 -4 -55 -30 -75 -12 -9 -20 -6 -39 14 -26 28 -24 63 5
96 15 16 17 16 36 0 10 -10 23 -26 28 -35z m485 3 c26 -51 -41 -98 -68 -48 -7
12 -11 29 -9 37 9 45 57 52 77 11z m-255 -229 c29 -34 30 -41 3 -72 l-28 -30
-28 27 c-34 32 -34 33 -7 67 24 31 39 33 60 8z"/>
<path d="M1238 1673 c-10 -2 -18 -8 -18 -13 0 -5 -43 -50 -96 -102 -52 -51
-123 -122 -157 -157 -34 -35 -83 -85 -108 -110 -35 -35 -44 -49 -35 -58 271
-275 423 -423 431 -423 14 0 345 328 345 341 0 5 4 9 10 9 11 0 79 71 80 83 0
7 -427 438 -432 436 -2 -1 -11 -3 -20 -6z m164 -256 c79 -79 149 -151 157
-160 12 -16 -2 -33 -140 -172 -85 -86 -155 -159 -157 -164 -1 -4 -53 44 -115
107 -62 64 -133 135 -159 160 -27 25 -48 48 -48 52 0 12 290 300 301 300 6 0
7 5 4 10 -3 6 -2 10 4 10 6 0 74 -64 153 -143z"/>
<path d="M1249 1444 c-2 -5 -45 -47 -94 -94 -50 -47 -94 -91 -98 -97 -5 -9 26
-46 92 -113 56 -55 104 -100 108 -100 6 0 203 197 203 203 0 10 -208 207 -211
201z m81 -199 c0 -13 -67 -85 -79 -85 -5 0 -21 15 -35 33 -14 17 -30 37 -35
42 -6 6 6 26 31 52 l41 42 39 -37 c21 -20 38 -41 38 -47z"/>
</g>
</svg>
